<?xml version="1.0" standalone="no"?><!DOCTYPE svg PUBLIC "-//W3C//DTD SVG 1.1//EN" "http://www.w3.org/Graphics/SVG/1.1/DTD/svg11.dtd"><svg t="1653359557491" class="icon" viewBox="0 0 1024 1024" version="1.1" xmlns="http://www.w3.org/2000/svg" p-id="1960" xmlns:xlink="http://www.w3.org/1999/xlink" width="200" height="200"><defs><style type="text/css"></style></defs><path d="M384 480H192c-52.9 0-96-43.1-96-96V192c0-52.9 43.1-96 96-96h192c52.9 0 96 43.1 96 96v192c0 52.9-43.1 96-96 96zM192 160c-17.7 0-32 14.3-32 32v192c0 17.7 14.3 32 32 32h192c17.7 0 32-14.3 32-32V192c0-17.7-14.3-32-32-32H192zM832 480H640c-52.9 0-96-43.1-96-96V192c0-52.9 43.1-96 96-96h192c52.9 0 96 43.1 96 96v192c0 52.9-43.1 96-96 96zM640 160c-17.7 0-32 14.3-32 32v192c0 17.7 14.3 32 32 32h192c17.7 0 32-14.3 32-32V192c0-17.7-14.3-32-32-32H640zM384 928H192c-52.9 0-96-43.1-96-96V640c0-52.9 43.1-96 96-96h192c52.9 0 96 43.1 96 96v192c0 52.9-43.1 96-96 96zM192 608c-17.7 0-32 14.3-32 32v192c0 17.7 14.3 32 32 32h192c17.7 0 32-14.3 32-32V640c0-17.7-14.3-32-32-32H192zM832 928H640c-52.9 0-96-43.1-96-96V640c0-52.9 43.1-96 96-96h192c52.9 0 96 43.1 96 96v192c0 52.9-43.1 96-96 96zM640 608c-17.7 0-32 14.3-32 32v192c0 17.7 14.3 32 32 32h192c17.7 0 32-14.3 32-32V640c0-17.7-14.3-32-32-32H640z" fill="#243154" p-id="1961"></path></svg>