<?xml version="1.0" standalone="no"?><!DOCTYPE svg PUBLIC "-//W3C//DTD SVG 1.1//EN" "http://www.w3.org/Graphics/SVG/1.1/DTD/svg11.dtd"><svg t="1653359574990" class="icon" viewBox="0 0 1024 1024" version="1.1" xmlns="http://www.w3.org/2000/svg" p-id="2110" xmlns:xlink="http://www.w3.org/1999/xlink" width="200" height="200"><defs><style type="text/css"></style></defs><path d="M759.14180231 930.74944842H603.1619116V698.1191351c0-5.50692388-5.65575925-10.12083234-12.50220549-10.12083316H437.2100239c-6.84644541 0-12.35336929 4.61390927-12.3533693 10.12083316v232.7791495H268.87676389c-83.49686883 0-151.51481763-64.89239722-151.51481763-144.51953604V448.37270703c0-17.56262164 5.20925235-34.67873557 15.03241315-49.56231253l2.23253695-3.27438693L480.07472638 106.94344238c6.99528158-6.25110232 15.62775623-10.26966851 25.00441012-12.05569775l2.38137232-0.4465069h13.09754855l2.23253614 0.4465069c9.3766539 1.63719387 18.00912854 5.80459543 25.15324548 11.90686239L893.54050519 395.23833603l2.23253695 3.27438693c9.97199697 14.88357696 15.18124851 32.14852707 15.18124851 49.71114789v338.00604153c-0.29767154 79.77597501-68.31562033 144.51953603-151.81248834 144.51953605z m-102.39901282-53.58087789h102.25017664c54.02738562 0 97.9339389-40.78100171 97.9339389-90.78982197V448.37270703c0-5.95343078-1.48835769-11.75802622-4.46507309-17.11611392l-338.45254925-282.78796975-338.75021997 282.78796975c-2.82788003 5.3580877-4.31623773 11.16268313-4.31623774 17.11611392v338.00604153c0 50.15765561 43.90655328 90.78982196 97.93393891 90.78982197h102.39901199V698.1191351c0-35.12524246 29.61831858-63.70171106 65.93424802-63.70171105h153.5985184c36.4647648 0 66.08308338 28.5764686 66.08308338 63.70171105v179.04943543z" p-id="2111"></path></svg>